<?xml version="1.0" encoding="UTF-8"?><svg id="a" xmlns="http://www.w3.org/2000/svg" viewBox="0 0 952.54 849.07"><defs><style>.b,.c{opacity:.3;}.b,.d{fill:#17bef0;}.e{fill:#0e86a9;opacity:.4;}.f{stroke:#00bff3;stroke-width:40px;}.f,.c,.g{fill:none;stroke-miterlimit:10;}.c{stroke:#29290d;}.c,.g{stroke-linecap:round;stroke-width:16px;}.g{opacity:.5;stroke:#5a9298;}.h{fill:#005068;opacity:.1;}</style></defs><ellipse class="f" cx="476.27" cy="424.53" rx="456.27" ry="172.54" transform="translate(-129.52 624.73) rotate(-60)"/><ellipse class="f" cx="476.27" cy="424.53" rx="456.27" ry="172.54"/><ellipse class="f" cx="476.27" cy="424.53" rx="172.54" ry="456.27" transform="translate(-148.46 295.01) rotate(-30)"/><circle class="e" cx="476.27" cy="424.53" r="97.5"/><circle class="b" cx="476.27" cy="424.53" r="109"/><circle class="d" cx="476.27" cy="424.53" r="85.5"/><line class="g" x1="502.53" y1="451.4" x2="538.53" y2="451.4"/><line class="c" x1="484.53" y1="387.4" x2="520.53" y2="387.4"/><path class="h" d="M458.53,424.4c3.52-18.46,11.58-43.8,18-64,2.37-7.45,4.7-14.48,6.94-21.04-2.38-.2-4.78-.32-7.2-.32-47.22,0-85.5,38.28-85.5,85.5,0,41.02,28.9,75.28,67.44,83.57-7.86-38.35-.24-80.75,.32-83.71Z"/><path class="d" d="M437.53,442.4c-4.39,0-8-3.61-8-8s3.61-8,8-8v16Z"/><rect class="d" x="437.53" y="426.4" width="27" height="16"/></svg>