<svg fill="none" height="256" viewBox="0 0 256 256" width="256" xmlns="http://www.w3.org/2000/svg"><rect fill="#3178c6" height="256" rx="128" width="256"/><path clip-rule="evenodd" d="m140.463 160.712v25.03c4.017 2.086 8.767 3.651 14.25 4.694 5.484 1.043 11.264 1.564 17.34 1.564 5.921 0 11.547-.574 16.876-1.721s10.002-3.037 14.018-5.671c4.016-2.633 7.196-6.075 9.539-10.325s3.514-9.503 3.514-15.761c0-4.537-.669-8.513-2.008-11.929-1.339-3.415-3.27-6.453-5.793-9.112-2.523-2.66-5.548-5.045-9.075-7.157s-7.505-4.107-11.933-5.984c-3.244-1.356-6.153-2.673-8.728-3.95-2.574-1.278-4.762-2.581-6.565-3.911-1.802-1.33-3.192-2.738-4.17-4.224-.979-1.486-1.468-3.168-1.468-5.045 0-1.721.438-3.272 1.313-4.654.876-1.382 2.111-2.5686 3.707-3.5594 1.597-.9908 3.553-1.7599 5.87-2.3075 2.317-.5475 4.892-.8213 7.724-.8213 2.06 0 4.235.1565 6.526.4694 2.292.3128 4.596.7952 6.913 1.447 2.317.6519 4.57 1.4732 6.758 2.4638 2.188.991 4.209 2.138 6.063 3.442v-23.3879c-3.759-1.4601-7.865-2.5422-12.319-3.2461-4.454-.704-9.564-1.056-15.331-1.056-5.87 0-11.431.6388-16.683 1.9164s-9.873 3.2722-13.864 5.9838-7.144 6.1663-9.461 10.3641-3.476 9.2167-3.476 15.0577c0 7.457 2.124 13.818 6.372 19.085s10.697 9.726 19.348 13.376c3.398 1.408 6.565 2.79 9.5 4.146 2.934 1.355 5.47 2.763 7.607 4.223 2.137 1.461 3.823 3.051 5.059 4.772s1.854 3.676 1.854 5.866c0 1.617-.386 3.116-1.159 4.498-.772 1.382-1.943 2.581-3.514 3.598-1.57 1.017-3.527 1.812-5.87 2.386-2.343.573-5.085.86-8.225.86-5.355 0-10.659-.952-15.911-2.855s-10.118-4.758-14.598-8.565zm-42.7525-62.1709h32.2895v-20.5411h-90v20.5411h32.1316v91.4589h25.5789z" fill="#fff" fill-rule="evenodd"/></svg>